<svg xmlns="http://www.w3.org/2000/svg" xmlns:xlink="http://www.w3.org/1999/xlink" width="38" height="22" viewBox="47.99 1.93 38 22"><defs><pattern x="49.49" y="5.93" width="54" height="54" patternUnits="userSpaceOnUse" id="a" viewBox="1.936 -56.079 54 54" overflow="visible"><path fill="none" d="M1.937 -2.079L1.937 -56.079 55.937 -56.079 55.937 -2.079z"/><path fill="none" stroke="#000" stroke-width=".7" stroke-linecap="round" d="M10.551-41.096L10.551-41.096M12.461-40.314L12.461-40.314M12.461-40.314L12.461-40.314M8.641-41.876L8.641-41.876M6.621-42.587L6.621-42.587M10.551-41.096L10.551-41.096M14.309-39.65L14.309-39.65M16.211-39.057L16.211-39.057M18.083-38.498L18.083-38.498M19.996-37.837L19.996-37.837M21.916-37.272L21.916-37.272M23.746-36.712L23.746-36.712M25.773-36.104L25.773-36.104M27.621-35.587L27.621-35.587M31.554-34.49L31.554-34.49M29.543-35.042L29.543-35.042M33.452-33.988L33.452-33.988M35.406-33.461L35.406-33.461M37.329-33.016L37.329-33.016M39.34-32.463L39.34-32.463M41.231-32.101L41.231-32.101M43.154-31.657L43.154-31.657M44.996-31.337L44.996-31.337M49.121-30.65L49.121-30.65M47.059-30.962L47.059-30.962M50.996-30.4L50.996-30.4M52.999-30.204L52.999-30.204M54.937-30.079L54.937-30.079M2.559-43.515L2.559-43.515M4.618-43.639L4.618-43.639M4.618-43.639L4.618-43.639M2.559-43.515L2.559-43.515M6.547-43.946L6.547-43.946M8.543-44.131L8.543-44.131M10.472-44.438L10.472-44.438M12.53-44.625L12.53-44.625M14.458-44.995L14.458-44.995M16.447-45.367L16.447-45.367M18.441-45.614L18.441-45.614M20.429-46.048L20.429-46.048M24.35-46.665L24.35-46.665M22.297-46.292L22.297-46.292M26.277-47.035L26.277-47.035M28.267-47.407L28.267-47.407M30.192-47.839L30.192-47.839M32.245-48.213L32.245-48.213M34.105-48.707L34.105-48.707M36.031-49.139L36.031-49.139M38.021-49.511L38.021-49.511M41.931-50.503L41.931-50.503M39.942-50.068L39.942-50.068M43.853-51.06L43.853-51.06M45.776-51.555L45.776-51.555M47.698-52.113L47.698-52.113M49.618-52.732L49.618-52.732M53.397-53.908L53.397-53.908M51.475-53.351L51.475-53.351M55.313-54.653L55.313-54.653M3.023-48.395L3.023-48.395M5.027-48.441L5.027-48.441M6.973-48.615L6.973-48.615M9.039-48.659L9.039-48.659M10.987-48.896L10.987-48.896M12.998-49.129L12.998-49.129M15.003-49.238L15.003-49.238M17.017-49.535L17.017-49.535M20.971-49.88L20.971-49.88M18.897-49.649L18.897-49.649M22.919-50.117L22.919-50.117M24.93-50.351L24.93-50.351M26.88-50.649L26.88-50.649M28.954-50.88L28.954-50.88M30.844-51.244L30.844-51.244M32.795-51.543L32.795-51.543M34.806-51.777L34.806-51.777M38.774-52.497L38.774-52.497M36.761-52.201L36.761-52.201M40.73-52.921L40.73-52.921M42.683-53.282L42.683-53.282M44.639-53.706L44.639-53.706M46.597-54.192L46.597-54.192M50.448-55.104L50.448-55.104M48.492-54.68L48.492-54.68M52.437-55.641L52.437-55.641M2.708-52.103L2.708-52.103M4.667-52.212L4.667-52.212M6.689-52.315L6.689-52.315M8.698-52.294L8.698-52.294M10.726-52.459L10.726-52.459M14.694-52.548L14.694-52.548M12.61-52.452L12.61-52.452M16.653-52.658L16.653-52.658M18.675-52.761L18.675-52.761M20.641-52.933L20.641-52.933M22.725-53.03L22.725-53.03M24.635-53.271L24.635-53.271M26.601-53.442L26.601-53.442M28.623-53.545L28.623-53.545M32.63-54.007L32.63-54.007M30.602-53.842L30.602-53.842M34.609-54.303L34.609-54.303M36.581-54.537L36.581-54.537M38.56-54.833L38.56-54.833M40.496-55.337L40.496-55.337M42.371-55.712L42.371-55.712M54.505-43.529L54.505-43.529M53.059-48.326L53.059-48.326M55.12-48.221L55.12-48.221M55.12-48.221L55.12-48.221M50.998-48.43L50.998-48.43M52.314-43.51L52.314-43.51M45.367-44.555L45.367-44.555M53.059-48.326L53.059-48.326M52.732-52.145L52.732-52.145M54.686-52.192L54.686-52.192M44.246-2.4L44.246-2.4M45.934-3.025L45.934-3.025M2.746-3.087L2.746-3.087M4.559-2.962L4.559-2.962M6.559-2.837L6.559-2.837M8.621-2.775L8.621-2.775M10.809-2.775L10.809-2.775M14.91-2.667L14.91-2.667M12.824-2.705L12.824-2.705M16.873-2.65L16.873-2.65M18.896-2.623L18.896-2.623M20.871-2.65L20.871-2.65M22.934-2.712L22.934-2.712M24.712-2.837L24.712-2.837M26.746-2.962L26.746-2.962M28.746-3.025L28.746-3.025M32.809-3.337L32.809-3.337M30.684-3.15L30.684-3.15M34.809-3.525L34.809-3.525M36.684-3.775L36.684-3.775M38.559-3.962L38.559-3.962M40.309-4.15L40.309-4.15M2.684-16.474L2.684-16.474M4.743-16.597L4.743-16.597M4.743-16.597L4.743-16.597M2.684-16.474L2.684-16.474M6.809-16.775L6.809-16.775M8.668-17.089L8.668-17.089M10.597-17.397L10.597-17.397M12.655-17.583L12.655-17.583M14.583-17.953L14.583-17.953M16.572-18.325L16.572-18.325M18.566-18.572L18.566-18.572M20.554-19.006L20.554-19.006M24.475-19.624L24.475-19.624M22.422-19.25L22.422-19.25M26.402-19.993L26.402-19.993M28.392-20.365L28.392-20.365M30.317-20.798L30.317-20.798M32.37-21.172L32.37-21.172M34.23-21.665L34.23-21.665M36.156-22.097L36.156-22.097M38.146-22.469L38.146-22.469M42.056-23.461L42.056-23.461M40.067-23.027L40.067-23.027M43.977-24.019L43.977-24.019M45.901-24.514L45.901-24.514M47.823-25.071L47.823-25.071M49.743-25.691L49.743-25.691M53.522-26.867L53.522-26.867M51.6-26.309L51.6-26.309M55.062-27.454L55.062-27.454M2.937-28.266L2.937-28.266M2.996-20.837L2.996-20.837M5.059-20.837L5.059-20.837M7.121-20.962L7.121-20.962M9.246-21.087L9.246-21.087M11.184-21.275L11.184-21.275M13.184-21.525L13.184-21.525M15.309-21.712L15.309-21.712M17.184-22.025L17.184-22.025M21.184-22.65L21.184-22.65M19.184-22.275L19.184-22.275M23.059-22.962L23.059-22.962M25.055-23.309L25.055-23.309M27.005-23.607L27.005-23.607M29.079-23.839L29.079-23.839M30.969-24.203L30.969-24.203M32.92-24.501L32.92-24.501M34.931-24.735L34.931-24.735M38.899-25.456L38.899-25.456M36.886-25.159L36.886-25.159M40.855-25.879L40.855-25.879M42.808-26.24L42.808-26.24M44.764-26.664L44.764-26.664M46.722-27.15L46.722-27.15M50.573-28.063L50.573-28.063M48.617-27.639L48.617-27.639M52.562-28.6L52.562-28.6M2.833-25.061L2.833-25.061M4.792-25.17L4.792-25.17M6.814-25.274L6.814-25.274M8.823-25.252L8.823-25.252M10.851-25.418L10.851-25.418M14.819-25.507L14.819-25.507M12.735-25.41L12.735-25.41M16.778-25.616L16.778-25.616M18.8-25.72L18.8-25.72M20.766-25.892L20.766-25.892M22.85-25.988L22.85-25.988M24.76-26.229L24.76-26.229M26.726-26.4L26.726-26.4M28.748-26.504L28.748-26.504M32.755-26.965L32.755-26.965M30.727-26.8L30.727-26.8M34.734-27.262L34.734-27.262M36.706-27.496L36.706-27.496M38.685-27.792L38.685-27.792M40.67-28.15L40.67-28.15M44.499-29.037L44.499-29.037M42.594-28.515L42.594-28.515M46.497-29.52L46.497-29.52M2.962-29.994L2.962-29.994M4.924-29.978L4.924-29.978M6.948-29.95L6.948-29.95M8.951-29.8L8.951-29.8M10.986-29.834L10.986-29.834M14.952-29.667L14.952-29.667M12.866-29.705L12.866-29.705M16.914-29.65L16.914-29.65M18.938-29.623L18.938-29.623M20.911-29.668L20.911-29.668M22.997-29.63L22.997-29.63M24.918-29.747L24.918-29.747M26.892-29.792L26.892-29.792M28.916-29.765L28.916-29.765M32.944-29.967L32.944-29.967M30.909-29.933L30.909-29.933M34.938-30.135L34.938-30.135M36.921-30.242L36.921-30.242M38.915-30.41L38.915-30.41M40.919-30.64L40.919-30.64M53.059-48.326L53.059-48.326M55.12-48.221L55.12-48.221M50.998-48.43L50.998-48.43M48.989-48.69L48.989-48.69M46.504-49.107L46.504-49.107M52.314-43.51L52.314-43.51M50.297-43.702L50.297-43.702M47.8-44.035L47.8-44.035M45.367-44.555L45.367-44.555M45.367-44.555L45.367-44.555M36.499-47.804L36.499-47.804M43.396-45.028L43.396-45.028M40.971-45.708L40.971-45.708M38.634-46.564L38.634-46.564M52.632-25.166L52.632-25.166M54.585-25.213L54.585-25.213M32.941-37.747L32.941-37.747M34.917-37.153L34.917-37.153M34.917-37.153L34.917-37.153M30.964-38.341L30.964-38.341M32.941-37.747L32.941-37.747M36.834-36.777L36.834-36.777M38.771-36.263L38.771-36.263M40.688-35.887L40.688-35.887M42.684-35.353L42.684-35.353M44.62-35.035L44.62-35.035M46.616-34.699L46.616-34.699M48.573-34.243L48.573-34.243M15.889-43.759L15.889-43.759M17.776-42.925L17.776-42.925M17.776-42.925L17.776-42.925M15.889-43.759L15.889-43.759M19.631-42.313L19.631-42.313M21.489-41.563L21.489-41.563M23.345-40.951L23.345-40.951M25.259-40.172L25.259-40.172M27.141-39.618L27.141-39.618M29.08-39.035L29.08-39.035M30.964-38.341L30.964-38.341M50.596-34.025L50.596-34.025M54.51-33.366L54.51-33.366M52.445-33.662L52.445-33.662M41.62-39.062L41.62-39.062M43.614-38.529L43.614-38.529M43.614-38.529L43.614-38.529M39.626-39.593L39.626-39.593M41.62-39.062L41.62-39.062M45.542-38.213L45.542-38.213M47.493-37.759L47.493-37.759M49.421-37.442L49.421-37.442M51.433-36.97L51.433-36.97M53.378-36.713L53.378-36.713M55.27-36.412L55.27-36.412M24.39-44.542L24.39-44.542M26.302-43.766L26.302-43.766M26.302-43.766L26.302-43.766M24.39-44.542L24.39-44.542M28.176-43.212L28.176-43.212M30.056-42.52L30.056-42.52M31.929-41.966L31.929-41.966M33.867-41.247L33.867-41.247M35.765-40.751L35.765-40.751M37.721-40.229L37.721-40.229M39.626-39.593L39.626-39.593M43.509-41.708L43.509-41.708M45.472-41.072L45.472-41.072M45.472-41.072L45.472-41.072M41.546-42.343L41.546-42.343M43.509-41.708L43.509-41.708M47.38-40.655L47.38-40.655M49.306-40.099L49.306-40.099M51.214-39.682L51.214-39.682M53.198-39.105L53.198-39.105M55.128-38.748L55.128-38.748M30.3-46.556L30.3-46.556M32.142-45.766L32.142-45.766M33.983-45.115L33.983-45.115M35.88-44.296L35.88-44.296M37.75-43.701L37.75-43.701M39.676-43.078L39.676-43.078M41.546-42.343L41.546-42.343M32.941-10.747L32.941-10.747M34.917-10.153L34.917-10.153M34.917-10.153L34.917-10.153M30.964-11.341L30.964-11.341M32.941-10.747L32.941-10.747M36.834-9.777L36.834-9.777M38.771-9.263L38.771-9.263M40.688-8.887L40.688-8.887M42.684-8.353L42.684-8.353M44.62-8.035L44.62-8.035M46.616-7.699L46.616-7.699M48.573-7.243L48.573-7.243M15.889-16.759L15.889-16.759M17.776-15.925L17.776-15.925M17.776-15.925L17.776-15.925M15.889-16.759L15.889-16.759M19.631-15.313L19.631-15.313M21.489-14.563L21.489-14.563M23.345-13.951L23.345-13.951M25.259-13.172L25.259-13.172M27.141-12.618L27.141-12.618M29.08-12.035L29.08-12.035M30.964-11.341L30.964-11.341M50.596-7.025L50.596-7.025M54.51-6.366L54.51-6.366M52.445-6.662L52.445-6.662M41.62-12.062L41.62-12.062M43.614-11.529L43.614-11.529M43.614-11.529L43.614-11.529M39.626-12.593L39.626-12.593M41.62-12.062L41.62-12.062M45.542-11.213L45.542-11.213M47.493-10.759L47.493-10.759M49.421-10.442L49.421-10.442M51.433-9.97L51.433-9.97M53.378-9.713L53.378-9.713M55.27-9.412L55.27-9.412M24.39-17.542L24.39-17.542M26.302-16.766L26.302-16.766M26.302-16.766L26.302-16.766M24.39-17.542L24.39-17.542M28.176-16.212L28.176-16.212M30.056-15.52L30.056-15.52M31.929-14.966L31.929-14.966M33.867-14.247L33.867-14.247M35.765-13.751L35.765-13.751M37.721-13.229L37.721-13.229M39.626-12.593L39.626-12.593M43.509-14.708L43.509-14.708M45.472-14.072L45.472-14.072M45.472-14.072L45.472-14.072M41.546-15.343L41.546-15.343M43.509-14.708L43.509-14.708M47.38-13.655L47.38-13.655M49.306-13.099L49.306-13.099M51.214-12.682L51.214-12.682M53.198-12.105L53.198-12.105M55.128-11.748L55.128-11.748M30.3-19.556L30.3-19.556M32.142-18.766L32.142-18.766M33.983-18.115L33.983-18.115M35.88-17.296L35.88-17.296M37.75-16.701L37.75-16.701M39.676-16.078L39.676-16.078M41.546-15.343L41.546-15.343M3.354-9.045L3.354-9.045M5.382-8.889L5.382-8.889M9.184-8.462L9.184-8.462M7.246-8.65L7.246-8.65M3.116-11.368L3.116-11.368M5.059-11.087L5.059-11.087M13.309-8.087L13.309-8.087M11.309-8.275L11.309-8.275M15.371-7.9L15.371-7.9M17.371-7.837L17.371-7.837M19.559-7.712L19.559-7.712M22.246-7.587L22.246-7.587M24.746-7.462L24.746-7.462M27.246-7.4L27.246-7.4M15.624-9.641L15.624-9.641M17.871-9.4L17.871-9.4M21.934-9.275L21.934-9.275M19.996-9.337L19.996-9.337M13.371-9.837L13.371-9.837M7.059-10.712L7.059-10.712M11.184-10.15L11.184-10.15M9.121-10.4L9.121-10.4M2.52-14.662L2.52-14.662M4.434-13.9L4.434-13.9M6.371-13.337L6.371-13.337M8.184-12.837L8.184-12.837M10.059-12.337L10.059-12.337M14.091-11.493L14.091-11.493M11.996-11.9L11.996-11.9M2.812-6.266L2.812-6.266M4.996-6.15L4.996-6.15M6.999-6.016L6.999-6.016M9.062-5.954L9.062-5.954M10.934-5.712L10.934-5.712M12.934-5.587L12.934-5.587M14.871-5.462L14.871-5.462M18.871-5.337L18.871-5.337M16.809-5.4L16.809-5.4M20.871-5.212L20.871-5.212M22.916-5.217L22.916-5.217M24.915-5.136L24.915-5.136M26.933-5.115L26.933-5.115M30.934-5.212L30.934-5.212M28.89-5.112L28.89-5.112M32.871-5.337L32.871-5.337M34.871-5.525L34.871-5.525M3.354-36.045L3.354-36.045M5.382-35.889L5.382-35.889M9.315-35.352L9.315-35.352M7.242-35.584L7.242-35.584M3.116-38.368L3.116-38.368M5.063-37.872L5.063-37.872M13.353-34.995L13.353-34.995M11.353-35.079L11.353-35.079M15.437-34.891L15.437-34.891M17.624-34.766L17.624-34.766M19.874-34.704L19.874-34.704M22.312-34.829L22.312-34.829M24.437-34.954L24.437-34.954M15.624-36.641L15.624-36.641M17.749-36.579L17.749-36.579M20.062-36.516L20.062-36.516M13.249-36.579L13.249-36.579M7.081-37.61L7.081-37.61M11.062-36.891L11.062-36.891M8.921-37.208L8.921-37.208M2.812-33.266L2.812-33.266M4.937-33.204L4.937-33.204M6.999-33.016L6.999-33.016M9.062-32.954L9.062-32.954M11.187-32.891L11.187-32.891M13.124-32.829L13.124-32.829M14.913-32.739L14.913-32.739M18.935-32.439L18.935-32.439M16.912-32.658L16.912-32.658M20.935-32.358L20.935-32.358M22.916-32.217L22.916-32.217M24.915-32.136L24.915-32.136M26.933-32.115L26.933-32.115M30.889-32.03L30.889-32.03M28.89-32.112L28.89-32.112M32.943-32.129L32.943-32.129M34.937-32.245L34.937-32.245M4.309-41.025L4.309-41.025M6.309-40.337L6.309-40.337M8.309-39.9L8.309-39.9M10.309-39.462L10.309-39.462M12.309-39.15L12.309-39.15M2.4-41.9L2.4-41.9M52.434-16.525L52.434-16.525M54.559-16.462L54.559-16.462M52.621-20.962L52.621-20.962M54.809-20.837L54.809-20.837M50.621-21.212L50.621-21.212M48.496-21.587L48.496-21.587M46.371-22.025L46.371-22.025M44.121-22.587L44.121-22.587M50.184-16.712L50.184-16.712M47.684-17.025L47.684-17.025M45.496-17.462L45.496-17.462M36.309-20.587L36.309-20.587M43.121-18.15L43.121-18.15M40.746-18.775L40.746-18.775M38.496-19.65L38.496-19.65M54.825-3.275L54.825-3.275M49.512-3.9L49.512-3.9M51.325-3.65L51.325-3.65M53.2-3.462L53.2-3.462M12.762-14.025L12.762-14.025M14.7-13.212L14.7-13.212M16.575-12.4L16.575-12.4M18.325-11.712L18.325-11.712M20.075-11.087L20.075-11.087M22.075-10.337L22.075-10.337M24.137-9.65L24.137-9.65M26.075-9.025L26.075-9.025M27.887-8.462L27.887-8.462M31.825-7.337L31.825-7.337M29.887-7.9L29.887-7.9M33.762-6.9L33.762-6.9M35.575-6.462L35.575-6.462M37.345-5.975L37.345-5.975M39.387-5.587L39.387-5.587M41.262-5.212L41.262-5.212M43.262-4.9L43.262-4.9M45.387-4.462L45.387-4.462M47.45-4.15L47.45-4.15M10.825-14.837L10.825-14.837M8.825-15.775L8.825-15.775"/></pattern></defs><pattern id="b" xlink:href="#a" patternTransform="translate(79.76 -137.488)"/><path fill="url(#b)" d="M83.737,22.317c0.046-0.064,0.09-0.13,0.131-0.197c0.229-0.375,0.432-0.638,0.358-1.067	c-0.073-0.429-0.65-0.77-0.427-1.251c0.201-0.434,0.768-0.258,1.081-0.518c0.437-0.36,0.341-1.196,0.234-1.71	c0.026,0.128,0.078,0.261,0.112,0.352c-0.023-0.591-0.81-0.755-0.785-1.375c0.012-0.301,0.282-0.652,0.364-0.949	c0.327-1.193-0.623-1.975-0.768-3.109c-0.068-0.54,0.357-1.211,0.573-1.688c0.221-0.487,0.954-0.836,1.004-1.375	c0.063-0.673-0.679-1.299-0.689-2.062c-0.004-0.281,0.179-0.595,0.178-0.795c-0.003-0.725-0.54-0.856-0.185-1.596	c0.237-0.494,0.591-0.746-0.239-0.86c-0.562-0.077-1.095,0.152-1.432-0.376c-0.139-0.217-0.028-0.499-0.195-0.746	c-0.208-0.308-0.731-0.604-1.063-0.753C80.716,1.662,79.08,1.93,77.717,1.93c-2.927,0-5.854,0-8.779,0c-5.596,0-11.191,0-16.786,0	c-1.354,0-2.708,0-4.061,0v22c3.029,0,6.058,0,9.087,0c5.811,0,11.622,0,17.433,0c2.048,0,4.097,0,6.145,0	C81.903,23.93,83.053,23.279,83.737,22.317z"/><path fill="none" stroke="#000" stroke-width=".1" d="M48.09 12.096c8.917-.583 23.483-5.583 30.733-9.583M55.158 11.43c9.249 3.75 21.398 5.5 29.548 3.801"/><path fill="none" stroke="#000" stroke-width=".092" d="M72.662,16.064c3.028,2.016,7.81,3.477,11.431,4.501"/><path fill="none" stroke="#000" stroke-width=".5" d="M81.928,1.992c0.084,0.261,0.813,0.733,1.06,1.003	c0.252,0.277,0.32,0.311,0.503,0.636c0.271,0.484-0.014,0.428,0.704,0.486c0.895,0.073,0.872,0.174,0.746,0.997	c-0.108,0.706,0.263,0.975-0.012,1.706c-0.151,0.405-0.313,0.467-0.125,0.842c0.084,0.168,0.36,0.141,0.429,0.282	c0.059,0.122-0.055,0.295-0.041,0.375c0.042,0.241-0.011,0.491,0.049,0.736c0.059,0.24,0.36,0.541,0.255,0.816	c-0.077,0.2-0.464,0.284-0.614,0.45c-0.201,0.223-0.309,0.521-0.393,0.795c-0.135,0.445-0.187,1.125-0.172,1.564	c0.027,0.79,0.332,1.544,0.361,2.361c0.017,0.466-0.228,0.792-0.13,1.202c0.045,0.185,0.493,0.958,0.624,1.015	c-0.093,0.677,0.12,1.294-0.418,1.908c-0.281,0.322-0.543,0.42-0.64,0.875c-0.089,0.415,0.047,0.889,0.001,1.313	c-0.076,0.701-0.854,1.39-1.438,1.828c-0.542,0.406-1.384,0.749-2.063,0.686"/></svg>